<svg width="726" height="789" viewBox="0 0 544.5 591.75" xmlns="http://www.w3.org/2000/svg" xmlns:xlink="http://www.w3.org/1999/xlink">
<g id="graph0" class="graph" transform="translate(4.102390443147837,365.47205449397813) scale(1.0255976107869593)">
<polygon fill="white" stroke="transparent" points="-4,4 -4,-245.37 240.08,-245.37 240.08,4 -4,4"/>
<text text-anchor="middle" x="118.04" y="-8.2" font-family="Times,serif" font-size="14.00">Figure 3: Finite machine to the task 1.3</text>
<g id="node1" class="node">
<title/>
</g>
<!-- q1 -->
<g id="node4" class="node">
<title>q1</title>
<ellipse fill="none" stroke="black" cx="118.54" cy="-147.68" rx="20.89" ry="20.89"/>
<text text-anchor="middle" x="118.54" y="-143.48" font-family="Times,serif" font-size="14.00">q1</text>
</g>
<!-- &#45;&gt;q1 -->
<g id="edge1" class="edge">
<title>-&gt;q1</title>
<path fill="none" stroke="black" d="M118.54,-205.28C118.54,-197.4 118.54,-187.8 118.54,-178.76"/>
<polygon fill="black" stroke="black" points="122.04,-178.55 118.54,-168.55 115.04,-178.55 122.04,-178.55"/>
</g>
<!-- q2 -->
<!-- q7&#45;&gt;q7 -->

<!-- q11 -->
<g id="edge3" class="edge">
<title>q1-&gt;q3</title>
<path fill="none" stroke="black" d="M124.92,-127.75C128.47,-117.27 132.98,-104 137.04,-92.19 138.11,-89.07 139.23,-85.82 140.35,-82.58"/>
<polygon fill="black" stroke="black" points="143.71,-83.58 143.68,-72.99 137.1,-81.29 143.71,-83.58"/>
<text text-anchor="middle" x="142.79" y="-96.39" font-family="Times,serif" font-size="14.00"> b</text>
</g><g id="node2" class="node">
<title>q2</title>
<ellipse fill="none" stroke="black" cx="84.54" cy="-49.49" rx="20.86" ry="20.86"/>
<ellipse fill="none" stroke="black" cx="84.54" cy="-49.49" rx="24.89" ry="24.89"/>
<text text-anchor="middle" x="84.54" y="-45.29" font-family="Times,serif" font-size="14.00">q2</text>
</g>
<!-- q2&#45;&gt;q2 -->
<g id="edge4" class="edge">
<title>q2-&gt;q1</title>
<path fill="none" stroke="black" d="M92.56,-73.18C97.28,-86.53 103.29,-103.54 108.34,-117.84"/>
<polygon fill="black" stroke="black" points="105.19,-119.42 111.82,-127.68 111.79,-117.08 105.19,-119.42"/>
<text text-anchor="middle" x="110.79" y="-96.39" font-family="Times,serif" font-size="14.00"> b</text>
</g>
<!-- q1&#45;&gt;q2 -->
<g id="edge2" class="edge">
<title>q1-&gt;q2</title>
<path fill="none" stroke="black" d="M100.19,-137.92C89.19,-131.58 76.14,-121.85 69.82,-108.99 65.56,-100.29 66.3,-90.24 68.98,-80.94"/>
<polygon fill="black" stroke="black" points="72.37,-81.86 72.51,-71.26 65.8,-79.46 72.37,-81.86"/>
<text text-anchor="middle" x="75.4" y="-96.39" font-family="Times,serif" font-size="14.00"> a</text>
</g>
<!-- q1&#45;&gt;q1 -->
<g id="edge5" class="edge">
<title>q3-&gt;q1</title>
<path fill="none" stroke="black" d="M153.01,-74.22C152.91,-85.12 151.68,-98.04 147.54,-108.99 145.49,-114.39 142.4,-119.66 138.98,-124.46"/>
<polygon fill="black" stroke="black" points="136.06,-122.5 132.63,-132.53 141.57,-126.83 136.06,-122.5"/>
<text text-anchor="middle" x="155.4" y="-96.39" font-family="Times,serif" font-size="14.00"> a</text>
</g>
<g id="node3" class="node">
<title>q3</title>
<ellipse fill="none" stroke="black" cx="151.54" cy="-49.49" rx="20.86" ry="20.86"/>
<text text-anchor="middle" x="151.54" y="-45.29" font-family="Times,serif" font-size="14.00">q3</text><ellipse fill="none" stroke="black" cx="151.54" cy="-49.49" rx="24.89" ry="24.89"/>

</g>
</g>
</svg>