<svg width="726" height="789" viewBox="0 0 544.5 591.75" xmlns="http://www.w3.org/2000/svg" xmlns:xlink="http://www.w3.org/1999/xlink">
<g id="graph0" class="graph" transform="translate(2.9299397908402924,378.33815675442) scale(0.7324849477100731)">
<polygon fill="white" stroke="transparent" points="-4,4 -4,-229.16 739.36,-229.16 739.36,4 -4,4"/>
<text text-anchor="middle" x="367.68" y="-8.2" font-family="Times,serif" font-size="14.00">Figure 2: Finite machine to the task 2.2 (direct product of 2.1 and 2.2)</text>
<g id="node1" class="node">
<title/>
</g>
<!-- q1 -->
<g id="node3" class="node">
<title style="">q1_p1</title>
<ellipse fill="none" stroke="black" cx="126.18" cy="-127.98" rx="35.36" ry="35.36" style=""/>
<text text-anchor="middle" x="126.18" y="-123.78" font-family="Times,serif" font-size="14.00" style="">q1_p1</text>
</g>
<!-- &#45;&gt;q1 -->
<g id="edge1" class="edge">
<title style="">-&gt;q1_p1</title>
<path fill="none" stroke="black" d="M54.04,-127.98C62.21,-127.98 71.47,-127.98 80.55,-127.98"/>
<polygon fill="black" stroke="black" points="80.65,-131.48 90.65,-127.98 80.65,-124.48 80.65,-131.48"/>
</g>
<!-- q3_p3 -->
<g id="node2" class="node">
<title style="">q4_p2</title>
<ellipse fill="none" stroke="black" cx="582.82" cy="-63.98" rx="35.34" ry="35.34" style=""/>
<ellipse fill="none" stroke="black" cx="582.82" cy="-63.98" rx="39.36" ry="39.36" style=""/>
<text text-anchor="middle" x="582.82" y="-59.78" font-family="Times,serif" font-size="14.00" style="">q4_p2</text>
</g>
<!-- q3_p3&#45;&gt;q3_p3 -->
<g id="edge16" class="edge">
<title style="">q4_p2-&gt;q4_p2</title>
<path fill="none" stroke="black" d="M571.61,-101.65C572,-112.64 575.73,-121.16 582.82,-121.16 587.48,-121.16 590.69,-117.49 592.45,-111.86" style=""/>
<polygon fill="black" stroke="black" points="595.96,-112.07 594.04,-101.65 589.05,-110.99 595.96,-112.07" style=""/>
<text text-anchor="middle" x="582.82" y="-125.36" font-family="Times,serif" font-size="14.00" style="">a</text>
</g>
<!-- q2_p1 -->
<g id="node9" class="node">
<title style="">q4_p1</title>
<ellipse fill="none" stroke="black" cx="700.18" cy="-103.98" rx="35.36" ry="35.36" style=""/>
<text text-anchor="middle" x="700.18" y="-99.78" font-family="Times,serif" font-size="14.00" style="">q4_p1</text>
</g>
<!-- q1_p1&#45;&gt;q2_p1 -->
<g id="edge17" class="edge">
<title style="">q4_p2-&gt;q4_p1</title>
<path fill="none" stroke="black" d="M621.91,-59.32C630.35,-59.43 639.12,-60.46 647,-63.18 653.88,-65.55 660.54,-69.24 666.68,-73.45" style=""/>
<polygon fill="black" stroke="black" points="664.59,-76.25 674.69,-79.44 668.78,-70.65 664.59,-76.25" style=""/>
<text text-anchor="middle" x="643.5" y="-68.18" font-family="Times,serif" font-size="14.00" style="">b</text>
</g>
<!-- q1_p2 -->
<g id="node4" class="node">
<title style="">q2_p1</title>
<ellipse fill="none" stroke="black" cx="239.54" cy="-175.98" rx="35.36" ry="35.36" style=""/>
<text text-anchor="middle" x="239.54" y="-171.78" font-family="Times,serif" font-size="14.00" style="">q2_p1</text>
</g>
<!-- q1_p1&#45;&gt;q1_p2 -->
<g id="edge2" class="edge">
<title style="">q1_p1-&gt;q2_p1</title>
<path fill="none" stroke="black" d="M158.79,-141.61C170.78,-146.77 184.62,-152.74 197.36,-158.23" style=""/>
<polygon fill="black" stroke="black" points="196.28,-161.57 206.84,-162.32 199.05,-155.15 196.28,-161.57" style=""/>
<text text-anchor="middle" x="182.86" y="-158.18" font-family="Times,serif" font-size="14.00" style="">a</text>
</g>
<!-- q2_p2 -->
<g id="node5" class="node">
<title style="">q1_p2</title>
<ellipse fill="none" stroke="black" cx="239.54" cy="-87.98" rx="35.36" ry="35.36" style=""/>
<text text-anchor="middle" x="239.54" y="-83.78" font-family="Times,serif" font-size="14.00" style="">q1_p2</text>
</g>
<!-- q1_p1&#45;&gt;q1_p2 -->
<g id="edge3" class="edge">
<title style="">q1_p1-&gt;q1_p2</title>
<path fill="none" stroke="black" d="M159.69,-116.3C171.24,-112.15 184.41,-107.42 196.63,-103.03" style=""/>
<polygon fill="black" stroke="black" points="197.95,-106.28 206.18,-99.6 195.59,-99.69 197.95,-106.28" style=""/>
<text text-anchor="middle" x="182.86" y="-114.18" font-family="Times,serif" font-size="14.00" style="">b</text>
</g>
<!-- q2_p2 -->
<g id="node6" class="node">
<title style="">q2_p2</title>
<ellipse fill="none" stroke="black" cx="352.89" cy="-133.98" rx="35.36" ry="35.36" style=""/>
<text text-anchor="middle" x="352.89" y="-129.78" font-family="Times,serif" font-size="14.00" style="">q2_p2</text>
</g>
<!-- q2_p1&#45;&gt;q2_p2 -->
<g id="edge7" class="edge">
<title style="">q2_p1-&gt;q2_p2</title>
<path fill="none" stroke="black" d="M272.75,-163.83C284.4,-159.43 297.74,-154.4 310.1,-149.74" style=""/>
<polygon fill="black" stroke="black" points="311.64,-152.9 319.76,-146.1 309.17,-146.35 311.64,-152.9" style=""/>
<text text-anchor="middle" x="296.22" y="-161.18" font-family="Times,serif" font-size="14.00" style="">b</text>
</g>
<!-- q3_p1 -->
<g id="node7" class="node">
<title style="">q3_p1</title>
<ellipse fill="none" stroke="black" cx="582.82" cy="-189.98" rx="35.36" ry="35.36" style=""/>
<text text-anchor="middle" x="582.82" y="-185.78" font-family="Times,serif" font-size="14.00" style="">q3_p1</text>
</g>
<!-- q2_p1&#45;&gt;q3_p1 -->
<g id="edge6" class="edge">
<title style="">q2_p1-&gt;q3_p1</title>
<path fill="none" stroke="black" d="M274.82,-177.39C337.05,-179.94 468.48,-185.33 537.45,-188.16" style=""/>
<polygon fill="black" stroke="black" points="537.42,-191.66 547.56,-188.57 537.71,-184.67 537.42,-191.66" style=""/>
<text text-anchor="middle" x="409.18" y="-187.18" font-family="Times,serif" font-size="14.00" style="">a</text>
</g>
<!-- q1_p2&#45;&gt;q1_p1 -->
<g id="edge5" class="edge">
<title style="">q1_p2-&gt;q1_p1</title>
<path fill="none" stroke="black" d="M204.71,-82.74C196.24,-82.57 187.31,-83.39 179.36,-86.18 172.36,-88.64 165.6,-92.48 159.4,-96.85" style=""/>
<polygon fill="black" stroke="black" points="157.1,-94.2 151.32,-103.07 161.37,-99.74 157.1,-94.2" style=""/>
<text text-anchor="middle" x="182.86" y="-91.18" font-family="Times,serif" font-size="14.00" style="">b</text>
</g>
<!-- q1_p2&#45;&gt;q2_p2 -->
<g id="edge4" class="edge">
<title style="">q1_p2-&gt;q2_p2</title>
<path fill="none" stroke="black" d="M272.57,-100.28C281.39,-103.74 290.95,-107.55 299.72,-111.18 303.41,-112.71 307.24,-114.33 311.07,-115.96" style=""/>
<polygon fill="black" stroke="black" points="309.95,-119.29 320.52,-120.04 312.73,-112.86 309.95,-119.29" style=""/>
<text text-anchor="middle" x="296.22" y="-116.18" font-family="Times,serif" font-size="14.00" style="">a</text>
</g>
<!-- q2_p2&#45;&gt;q2_p1 -->
<g id="edge9" class="edge">
<title style="">q2_p2-&gt;q2_p1</title>
<path fill="none" stroke="black" d="M317.73,-129.44C309.35,-129.43 300.55,-130.38 292.72,-133.18 285.59,-135.73 278.73,-139.72 272.47,-144.26" style=""/>
<polygon fill="black" stroke="black" points="269.99,-141.76 264.32,-150.71 274.33,-147.25 269.99,-141.76" style=""/>
<text text-anchor="middle" x="296.22" y="-138.18" font-family="Times,serif" font-size="14.00" style="">b</text>
</g>
<!-- q3_p2 -->
<g id="node8" class="node">
<title style="">q3_p2</title>
<ellipse fill="none" stroke="black" cx="465.47" cy="-133.98" rx="35.36" ry="35.36" style=""/>
<text text-anchor="middle" x="465.47" y="-129.78" font-family="Times,serif" font-size="14.00" style="">q3_p2</text>
</g>
<!-- q2_p2&#45;&gt;q3_p2 -->
<g id="edge8" class="edge">
<title style="">q2_p2-&gt;q3_p2</title>
<path fill="none" stroke="black" d="M388.27,-133.98C398.26,-133.98 409.31,-133.98 419.83,-133.98" style=""/>
<polygon fill="black" stroke="black" points="420.11,-137.48 430.11,-133.98 420.11,-130.48 420.11,-137.48" style=""/>
<text text-anchor="middle" x="409.18" y="-138.18" font-family="Times,serif" font-size="14.00" style="">a</text>
</g>
<!-- q3_p1&#45;&gt;q3_p2 -->
<g id="edge11" class="edge">
<title style="">q3_p1-&gt;q3_p2</title>
<path fill="none" stroke="black" d="M558.63,-163.9C546.86,-151.4 533.44,-138.44 525.64,-135.18 520.91,-133.2 515.77,-131.94 510.56,-131.21" style=""/>
<polygon fill="black" stroke="black" points="510.8,-127.71 500.55,-130.38 510.22,-134.69 510.8,-127.71" style=""/>
<text text-anchor="middle" x="522.14" y="-140.18" font-family="Times,serif" font-size="14.00" style="">b</text>
</g>
<!-- q3_p1&#45;&gt;q4_p1 -->
<g id="edge10" class="edge">
<title style="">q3_p1-&gt;q4_p1</title>
<path fill="none" stroke="black" d="M611.45,-169.38C626.89,-157.87 646.32,-143.39 662.96,-130.98" style=""/>
<polygon fill="black" stroke="black" points="665.45,-133.49 671.38,-124.71 661.27,-127.88 665.45,-133.49" style=""/>
<text text-anchor="middle" x="643.5" y="-151.18" font-family="Times,serif" font-size="14.00" style="">a</text>
</g>
<!-- q3_p2&#45;&gt;q4_p2 -->
<g id="edge12" class="edge">
<title style="">q3_p2-&gt;q4_p2</title>
<path fill="none" stroke="black" d="M495.87,-116.13C509.25,-108.02 525.33,-98.26 539.93,-89.4" style=""/>
<polygon fill="black" stroke="black" points="542.07,-92.2 548.8,-84.02 538.44,-86.21 542.07,-92.2" style=""/>
<text text-anchor="middle" x="522.14" y="-106.18" font-family="Times,serif" font-size="14.00" style="">a</text>
</g>
<!-- q3_p2&#45;&gt;q3_p1 -->
<g id="edge13" class="edge">
<title style="">q3_p2-&gt;q3_p1</title>
<path fill="none" stroke="black" d="M497.38,-148.99C510.96,-155.58 527.08,-163.4 541.57,-170.44" style=""/>
<polygon fill="black" stroke="black" points="540.3,-173.71 550.82,-174.93 543.36,-167.41 540.3,-173.71" style=""/>
<text text-anchor="middle" x="522.14" y="-166.18" font-family="Times,serif" font-size="14.00" style="">b</text>
</g>
<!-- q4_p1&#45;&gt;q4_p2 -->
<g id="edge15" class="edge">
<title style="">q4_p1-&gt;q4_p2</title>
<path fill="none" stroke="black" d="M666.65,-92.7C655.18,-88.72 642.07,-84.18 629.71,-79.89" style=""/>
<polygon fill="black" stroke="black" points="630.6,-76.49 620.01,-76.53 628.31,-83.11 630.6,-76.49" style=""/>
<text text-anchor="middle" x="643.5" y="-90.18" font-family="Times,serif" font-size="14.00" style="">b</text>
</g>
<!-- q4_p1&#45;&gt;q4_p1 -->
<g id="edge14" class="edge">
<title style="">q4_p1-&gt;q4_p1</title>
<path fill="none" stroke="black" d="M689.68,-137.73C689.79,-148.57 693.29,-157.16 700.18,-157.16 704.7,-157.16 707.76,-153.46 709.37,-147.85" style=""/>
<polygon fill="black" stroke="black" points="712.86,-148.1 710.68,-137.73 705.92,-147.2 712.86,-148.1" style=""/>
<text text-anchor="middle" x="700.18" y="-161.36" font-family="Times,serif" font-size="14.00" style="">a</text>
</g>
</g>
</svg>