<svg width="726" height="789" viewBox="0 0 544.5 591.75" xmlns="http://www.w3.org/2000/svg" xmlns:xlink="http://www.w3.org/1999/xlink">
<g id="graph0" class="graph" transform="translate(118.45500183105469,350.36999893188477) scale(1)">
<polygon fill="white" stroke="transparent" points="-4,4 -4,-112.99 313.16,-112.99 313.16,4 -4,4"/>
<text text-anchor="middle" x="154.58" y="-8.2" font-family="Times,serif" font-size="14.00">Figure 1.2: Finite machine to the task 2.1</text>
<g id="node1" class="node">
<title/>
</g>
<!-- q1 -->
<g id="node3" class="node">
<title style="">p1</title>
<ellipse fill="none" stroke="black" cx="111.69" cy="-49.49" rx="20.89" ry="20.89" style=""/>
<text text-anchor="middle" x="111.69" y="-45.29" font-family="Times,serif" font-size="14.00" style="">p1</text>
</g>
<!-- &#45;&gt;q1 -->
<g id="edge1" class="edge">
<title style="">-&gt;p1</title>
<path fill="none" stroke="black" d="M54.16,-49.49C62.64,-49.49 72.11,-49.49 80.83,-49.49"/>
<polygon fill="black" stroke="black" points="80.99,-52.99 90.99,-49.49 80.99,-45.99 80.99,-52.99"/>
</g>
<!-- q3_p3 -->
<g id="node2" class="node">
<title style="">p3</title>
<ellipse fill="none" stroke="black" cx="284.47" cy="-49.49" rx="20.86" ry="20.86" style=""/>
<ellipse fill="none" stroke="black" cx="284.47" cy="-49.49" rx="24.89" ry="24.89" style=""/>
<text text-anchor="middle" x="284.47" y="-45.29" font-family="Times,serif" font-size="14.00" style="">p3</text>
</g>
<!-- q3_p3&#45;&gt;q3_p3 -->
<g id="edge6" class="edge">
<title style="">p3-&gt;p3</title>
<path fill="none" stroke="black" d="M275.98,-72.77C275.17,-83.18 278,-92.19 284.47,-92.19 288.61,-92.19 291.26,-88.49 292.42,-83.1" style=""/>
<polygon fill="black" stroke="black" points="295.93,-82.94 292.96,-72.77 288.94,-82.57 295.93,-82.94" style=""/>
<text text-anchor="middle" x="284.47" y="-96.39" font-family="Times,serif" font-size="14.00" style="">b,a</text>
</g>
<!-- q2_p1 -->
<g id="edge2" class="edge">
<title style="">p1-&gt;p1</title>
<path fill="none" stroke="black" d="M104.78,-69.4C103.82,-79.33 106.13,-88.19 111.69,-88.19 115.17,-88.19 117.38,-84.73 118.31,-79.71" style=""/>
<polygon fill="black" stroke="black" points="121.82,-79.5 118.61,-69.4 114.82,-79.3 121.82,-79.5" style=""/>
<text text-anchor="middle" x="111.69" y="-92.39" font-family="Times,serif" font-size="14.00" style="">a</text>
</g>
<!-- q1_p1&#45;&gt;q2_p1 -->
<g id="node4" class="node">
<title style="">p2</title>
<ellipse fill="none" stroke="black" cx="196.08" cy="-49.49" rx="20.89" ry="20.89" style=""/>
<text text-anchor="middle" x="196.08" y="-45.29" font-family="Times,serif" font-size="14.00" style="">p2</text>
</g>
<!-- q1_p2 -->
<g id="edge3" class="edge">
<title style="">p1-&gt;p2</title>
<path fill="none" stroke="black" d="M132.64,-49.49C142.35,-49.49 154.24,-49.49 165.02,-49.49" style=""/>
<polygon fill="black" stroke="black" points="165.32,-52.99 175.32,-49.49 165.32,-45.99 165.32,-52.99" style=""/>
<text text-anchor="middle" x="153.89" y="-53.69" font-family="Times,serif" font-size="14.00" style="">b</text>
</g>
<!-- q1_p1&#45;&gt;q1_p2 -->
<g id="edge5" class="edge">
<title style="">p2-&gt;p3</title>
<path fill="none" stroke="black" d="M217.12,-49.49C226.71,-49.49 238.47,-49.49 249.41,-49.49" style=""/>
<polygon fill="black" stroke="black" points="249.55,-52.99 259.55,-49.49 249.55,-45.99 249.55,-52.99" style=""/>
<text text-anchor="middle" x="238.27" y="-53.69" font-family="Times,serif" font-size="14.00" style="">b</text>
</g>
<!-- q2_p2 -->
<g id="edge4" class="edge">
<title style="">p2-&gt;p2</title>
<path fill="none" stroke="black" d="M188.48,-69C187.31,-79.09 189.85,-88.19 196.08,-88.19 200.07,-88.19 202.55,-84.45 203.5,-79.12" style=""/>
<polygon fill="black" stroke="black" points="207.01,-79.06 203.68,-69 200.01,-78.94 207.01,-79.06" style=""/>
<text text-anchor="middle" x="196.08" y="-92.39" font-family="Times,serif" font-size="14.00" style="">a</text>
</g>
</g>
</svg>