<svg width="726" height="789" viewBox="0 0 544.5 591.75" xmlns="http://www.w3.org/2000/svg" xmlns:xlink="http://www.w3.org/1999/xlink">
<g id="graph0" class="graph" transform="translate(2.9361410433071593,383.0783912263205) scale(0.7340352608267898)">
<polygon fill="white" stroke="transparent" points="-4,4 -4,-241.6 737.79,-241.6 737.79,4 -4,4"/>
<text text-anchor="middle" x="366.89" y="-8.2" font-family="Times,serif" font-size="14.00">Figure 3: Finite machine to the task 2.3 (direct product of 3.1 and 3.2)</text>
<g id="node1" class="node">
<title/>
</g>
<!-- q1 -->
<g id="node2" class="node">
<title style="">q1_p1</title>
<ellipse fill="none" stroke="black" cx="130.18" cy="-158.8" rx="35.34" ry="35.34" style=""/>
<ellipse fill="none" stroke="black" cx="130.18" cy="-158.8" rx="39.36" ry="39.36" style=""/>
<text text-anchor="middle" x="130.18" y="-154.6" font-family="Times,serif" font-size="14.00" style="">q1_p1</text>
</g>
<!-- &#45;&gt;q1 -->
<g id="edge1" class="edge">
<title style="">-&gt;q1_p1</title>
<path fill="none" stroke="black" d="M54.06,-158.8C62.22,-158.8 71.52,-158.8 80.72,-158.8"/>
<polygon fill="black" stroke="black" points="81,-162.3 91,-158.8 81,-155.3 81,-162.3"/>
</g>
<!-- q3_p3 -->
<g id="node3" class="node">
<title style="">q2_p1</title>
<ellipse fill="none" stroke="black" cx="246.75" cy="-102.8" rx="35.36" ry="35.36" style=""/>
<text text-anchor="middle" x="246.75" y="-98.6" font-family="Times,serif" font-size="14.00" style="">q2_p1</text>
</g>
<!-- q3_p3&#45;&gt;q3_p3 -->
<g id="edge2" class="edge">
<title style="">q1_p1-&gt;q2_p1</title>
<path fill="none" stroke="black" d="M165.87,-141.85C178.37,-135.73 192.59,-128.78 205.53,-122.46" style=""/>
<polygon fill="black" stroke="black" points="207.24,-125.52 214.69,-117.98 204.17,-119.23 207.24,-125.52" style=""/>
<text text-anchor="middle" x="190.46" y="-135" font-family="Times,serif" font-size="14.00" style="">a</text>
</g>
<!-- q2_p1 -->
<g id="node4" class="node">
<title style="">q1_p2</title>
<ellipse fill="none" stroke="black" cx="472.68" cy="-142.8" rx="35.36" ry="35.36" style=""/>
<text text-anchor="middle" x="472.68" y="-138.6" font-family="Times,serif" font-size="14.00" style="">q1_p2</text>
</g>
<!-- q1_p1&#45;&gt;q2_p1 -->
<g id="edge3" class="edge">
<title style="">q1_p1-&gt;q1_p2</title>
<path fill="none" stroke="black" d="M169.67,-157.13C221.1,-154.89 315.06,-150.72 395.29,-146.8 405.63,-146.29 416.77,-145.73 427.25,-145.18" style=""/>
<polygon fill="black" stroke="black" points="427.65,-148.66 437.46,-144.64 427.29,-141.67 427.65,-148.66" style=""/>
<text text-anchor="middle" x="303.43" y="-156" font-family="Times,serif" font-size="14.00" style="">b</text>
</g>
<!-- q1_p2 -->
<g id="edge8" class="edge">
<title style="">q2_p1-&gt;q1_p1</title>
<path fill="none" stroke="black" d="M211.48,-102.89C203.32,-103.87 194.82,-105.71 187.36,-109 179.39,-112.52 171.75,-117.59 164.81,-123.17" style=""/>
<polygon fill="black" stroke="black" points="162.3,-120.71 157.01,-129.89 166.87,-126.02 162.3,-120.71" style=""/>
<text text-anchor="middle" x="190.46" y="-114" font-family="Times,serif" font-size="14.00" style="">a</text>
</g>
<!-- q2_p2 -->
<g id="node5" class="node">
<title style="">q2_p2</title>
<ellipse fill="none" stroke="black" cx="360.11" cy="-102.8" rx="35.36" ry="35.36" style=""/>
<text text-anchor="middle" x="360.11" y="-98.6" font-family="Times,serif" font-size="14.00" style="">q2_p2</text>
</g>
<!-- q2_p1&#45;&gt;q2_p2 -->
<g id="edge9" class="edge">
<title style="">q2_p1-&gt;q2_p2</title>
<path fill="none" stroke="black" d="M282.07,-102.8C292.34,-102.8 303.75,-102.8 314.57,-102.8" style=""/>
<polygon fill="black" stroke="black" points="314.71,-106.3 324.71,-102.8 314.71,-99.3 314.71,-106.3" style=""/>
<text text-anchor="middle" x="303.43" y="-107" font-family="Times,serif" font-size="14.00" style="">b</text>
</g>
<!-- q1_p2&#45;&gt;q2_p2 -->
<g id="edge4" class="edge">
<title style="">q1_p2-&gt;q2_p2</title>
<path fill="none" stroke="black" d="M446.44,-119.17C438.42,-113.06 429.11,-107.29 419.5,-104 415.12,-102.5 410.44,-101.5 405.72,-100.86" style=""/>
<polygon fill="black" stroke="black" points="405.64,-97.34 395.38,-100.01 405.06,-104.32 405.64,-97.34" style=""/>
<text text-anchor="middle" x="416.39" y="-109" font-family="Times,serif" font-size="14.00" style="">a</text>
</g>
<!-- q1_p3 -->
<g id="node6" class="node">
<title style="">q1_p3</title>
<ellipse fill="none" stroke="black" cx="586.04" cy="-142.8" rx="35.36" ry="35.36" style=""/>
<text text-anchor="middle" x="586.04" y="-138.6" font-family="Times,serif" font-size="14.00" style="">q1_p3</text>
</g>
<!-- q1_p2&#45;&gt;q1_p3 -->
<g id="edge5" class="edge">
<title style="">q1_p2-&gt;q1_p3</title>
<path fill="none" stroke="black" d="M508,-142.8C518.27,-142.8 529.68,-142.8 540.5,-142.8" style=""/>
<polygon fill="black" stroke="black" points="540.64,-146.3 550.64,-142.8 540.64,-139.3 540.64,-146.3" style=""/>
<text text-anchor="middle" x="529.36" y="-147" font-family="Times,serif" font-size="14.00" style="">b</text>
</g>
<!-- q2_p2&#45;&gt;q1_p2 -->
<g id="edge10" class="edge">
<title style="">q2_p2-&gt;q1_p2</title>
<path fill="none" stroke="black" d="M393.39,-114.48C404.75,-118.59 417.7,-123.27 429.75,-127.63" style=""/>
<polygon fill="black" stroke="black" points="428.57,-130.93 439.17,-131.04 430.96,-124.35 428.57,-130.93" style=""/>
<text text-anchor="middle" x="416.39" y="-127" font-family="Times,serif" font-size="14.00" style="">a</text>
</g>
<!-- q2_p3 -->
<g id="node7" class="node">
<title style="">q2_p3</title>
<ellipse fill="none" stroke="black" cx="698.61" cy="-85.8" rx="35.36" ry="35.36" style=""/>
<text text-anchor="middle" x="698.61" y="-81.6" font-family="Times,serif" font-size="14.00" style="">q2_p3</text>
</g>
<!-- q2_p2&#45;&gt;q2_p3 -->
<g id="edge11" class="edge">
<title style="">q2_p2-&gt;q2_p3</title>
<path fill="none" stroke="black" d="M395.34,-100.02C401.32,-99.58 407.48,-99.16 413.29,-98.8 497.85,-93.63 596.67,-89.55 652.73,-87.42" style=""/>
<polygon fill="black" stroke="black" points="653.15,-90.91 663.01,-87.04 652.89,-83.92 653.15,-90.91" style=""/>
<text text-anchor="middle" x="529.36" y="-97" font-family="Times,serif" font-size="14.00" style="">b</text>
</g>
<!-- q1_p3&#45;&gt;q1_p1 -->
<g id="edge7" class="edge">
<title style="">q1_p3-&gt;q1_p1</title>
<path fill="none" stroke="black" d="M563.4,-170.08C542.94,-192.57 510.03,-220.8 473.68,-220.8 245.75,-220.8 245.75,-220.8 245.75,-220.8 217.4,-220.8 189.34,-205.93 168.09,-190.76" style=""/>
<polygon fill="black" stroke="black" points="170.11,-187.9 160,-184.73 165.93,-193.51 170.11,-187.9" style=""/>
<text text-anchor="middle" x="360.11" y="-225" font-family="Times,serif" font-size="14.00" style="">b</text>
</g>
<!-- q1_p3&#45;&gt;q2_p3 -->
<g id="edge6" class="edge">
<title style="">q1_p3-&gt;q2_p3</title>
<path fill="none" stroke="black" d="M613.52,-120.42C621.43,-114.5 630.36,-108.51 639.22,-104 644.07,-101.53 649.31,-99.32 654.61,-97.37" style=""/>
<polygon fill="black" stroke="black" points="655.78,-100.67 664.11,-94.12 653.51,-94.04 655.78,-100.67" style=""/>
<text text-anchor="middle" x="642.32" y="-109" font-family="Times,serif" font-size="14.00" style="">a</text>
</g>
<!-- q2_p3&#45;&gt;q2_p1 -->
<g id="edge13" class="edge">
<title style="">q2_p3-&gt;q2_p1</title>
<path fill="none" stroke="black" d="M672.07,-62.04C650.94,-44.91 619.27,-24.8 587.04,-24.8 359.11,-24.8 359.11,-24.8 359.11,-24.8 326.59,-24.8 296.83,-47.39 276.26,-68.25" style=""/>
<polygon fill="black" stroke="black" points="273.72,-65.85 269.39,-75.52 278.8,-70.66 273.72,-65.85" style=""/>
<text text-anchor="middle" x="472.68" y="-29" font-family="Times,serif" font-size="14.00" style="">b</text>
</g>
<!-- q2_p3&#45;&gt;q1_p3 -->
<g id="edge12" class="edge">
<title style="">q2_p3-&gt;q1_p3</title>
<path fill="none" stroke="black" d="M669.63,-106.29C661.99,-111.39 653.58,-116.6 645.43,-120.8 640.25,-123.47 634.66,-125.99 629.08,-128.3" style=""/>
<polygon fill="black" stroke="black" points="627.75,-125.06 619.74,-131.99 630.33,-131.57 627.75,-125.06" style=""/>
<text text-anchor="middle" x="642.32" y="-128" font-family="Times,serif" font-size="14.00" style="">a</text>
</g>
</g>
</svg>