<svg width="726" height="789" viewBox="0 0 544.5 591.75" xmlns="http://www.w3.org/2000/svg" xmlns:xlink="http://www.w3.org/1999/xlink">
<g id="graph0" class="graph" transform="translate(148.95999908447266,350.36999893188477) scale(1)">
<polygon fill="white" stroke="transparent" points="-4,4 -4,-112.99 250.58,-112.99 250.58,4 -4,4"/>
<text text-anchor="middle" x="123.29000000000002" y="-8.2" font-family="Times,serif" font-size="14.00">Figure 3.1: Finite machine to the task 2.3</text>
<g id="node1" class="node">
<title/>
</g>
<!-- q1 -->
<g id="node2" class="node">
<title style="">q1</title>
<ellipse fill="none" stroke="black" cx="126.99" cy="-49.49" rx="20.86" ry="20.86" style=""/>
<ellipse fill="none" stroke="black" cx="126.99" cy="-49.49" rx="24.89" ry="24.89" style=""/>
<text text-anchor="middle" x="126.99" y="-45.29" font-family="Times,serif" font-size="14.00" style="">q1</text>
</g>
<!-- &#45;&gt;q1 -->
<g id="edge1" class="edge">
<title style="">-&gt;q1</title>
<path fill="none" stroke="black" d="M65.31,-49.49C73.69,-49.49 83.12,-49.49 91.99,-49.49"/>
<polygon fill="black" stroke="black" points="92.07,-52.99 102.07,-49.49 92.07,-45.99 92.07,-52.99"/>
</g>
<!-- q3_p3 -->
<g id="edge2" class="edge">
<title style="">q1-&gt;q1</title>
<path fill="none" stroke="black" d="M119.21,-73.2C118.57,-83.43 121.16,-92.19 126.99,-92.19 130.72,-92.19 133.12,-88.59 134.2,-83.32" style=""/>
<polygon fill="black" stroke="black" points="137.71,-83.38 134.77,-73.2 130.72,-82.99 137.71,-83.38" style=""/>
<text text-anchor="middle" x="126.99" y="-96.39" font-family="Times,serif" font-size="14.00" style="">b</text>
</g>
<!-- q3_p3&#45;&gt;q3_p3 -->
<g id="node3" class="node">
<title style="">q2</title>
<ellipse fill="none" stroke="black" cx="214.59" cy="-49.49" rx="20.89" ry="20.89" style=""/>
<text text-anchor="middle" x="214.59" y="-45.29" font-family="Times,serif" font-size="14.00" style="">q2</text>
</g>
<!-- q2_p1 -->
<g id="edge3" class="edge">
<title style="">q1-&gt;q2</title>
<path fill="none" stroke="black" d="M151.83,-49.49C161.6,-49.49 173.02,-49.49 183.36,-49.49" style=""/>
<polygon fill="black" stroke="black" points="183.63,-52.99 193.63,-49.49 183.63,-45.99 183.63,-52.99" style=""/>
<text text-anchor="middle" x="172.79" y="-53.69" font-family="Times,serif" font-size="14.00" style="">a</text>
</g>
<!-- q1_p1&#45;&gt;q2_p1 -->
<g id="edge4" class="edge">
<title style="">q2-&gt;q1</title>
<path fill="none" stroke="black" d="M197.09,-38.03C190.76,-34.28 183.28,-30.6 175.9,-28.69 169.44,-27.03 162.74,-28.04 156.48,-30.32" style=""/>
<polygon fill="black" stroke="black" points="154.63,-27.32 147.07,-34.75 157.61,-33.65 154.63,-27.32" style=""/>
<text text-anchor="middle" x="172.79" y="-32.69" font-family="Times,serif" font-size="14.00" style="">a</text>
</g>
<!-- q1_p2 -->
<g id="edge5" class="edge">
<title style="">q2-&gt;q2</title>
<path fill="none" stroke="black" d="M207.35,-69C206.24,-79.09 208.65,-88.19 214.59,-88.19 218.39,-88.19 220.75,-84.45 221.66,-79.12" style=""/>
<polygon fill="black" stroke="black" points="225.16,-79.06 221.82,-69 218.16,-78.95 225.16,-79.06" style=""/>
<text text-anchor="middle" x="214.59" y="-92.39" font-family="Times,serif" font-size="14.00" style="">b</text>
</g>
</g>
</svg>