<svg width="726" height="789" viewBox="0 0 544.5 591.75" xmlns="http://www.w3.org/2000/svg" xmlns:xlink="http://www.w3.org/1999/xlink">
<g id="graph0" class="graph" transform="translate(2.809017799664313,397.5614464909586) scale(0.7022544499160782)">
<polygon fill="white" stroke="transparent" points="-4,4 -4,-293.6 771.36,-293.6 771.36,4 -4,4"/>
<text text-anchor="middle" x="383.68" y="-8.2" font-family="Times,serif" font-size="14.00">Figure 4: Finite machine to the task 2.4 (inverse of 2.3)</text>
<g id="node1" class="node">
<title/>
</g>
<!-- q1 -->
<g id="node7" class="node">
<title style="">q1_p1</title>
<ellipse fill="none" stroke="black" cx="126.18" cy="-191.8" rx="35.36" ry="35.36" style=""/>
<text text-anchor="middle" x="126.18" y="-187.6" font-family="Times,serif" font-size="14.00" style="">q1_p1</text>
</g>
<!-- &#45;&gt;q1 -->
<g id="edge1" class="edge">
<title style="">-&gt;q1_p1</title>
<path fill="none" stroke="black" d="M54.04,-191.8C62.21,-191.8 71.47,-191.8 80.55,-191.8"/>
<polygon fill="black" stroke="black" points="80.65,-195.3 90.65,-191.8 80.65,-188.3 80.65,-195.3"/>
</g>
<!-- q3_p3 -->
<g id="node2" class="node">
<title style="">q1_p2</title>
<ellipse fill="none" stroke="black" cx="243.54" cy="-83.8" rx="35.34" ry="35.34" style=""/>
<ellipse fill="none" stroke="black" cx="243.54" cy="-83.8" rx="39.36" ry="39.36" style=""/>
<text text-anchor="middle" x="243.54" y="-79.6" font-family="Times,serif" font-size="14.00" style="">q1_p2</text>
</g>
<!-- q3_p3&#45;&gt;q3_p3 -->
<g id="node3" class="node">
<title style="">q1_p3</title>
<ellipse fill="none" stroke="black" cx="364.89" cy="-144.8" rx="35.34" ry="35.34" style=""/>
<ellipse fill="none" stroke="black" cx="364.89" cy="-144.8" rx="39.36" ry="39.36" style=""/>
<text text-anchor="middle" x="364.89" y="-140.6" font-family="Times,serif" font-size="14.00" style="">q1_p3</text>
</g>
<!-- q2_p1 -->
<g id="edge5" class="edge">
<title style="">q1_p2-&gt;q1_p3</title>
<path fill="none" stroke="black" d="M278.74,-101.28C291.72,-107.92 306.69,-115.57 320.42,-122.58" style=""/>
<polygon fill="black" stroke="black" points="319.19,-125.88 329.69,-127.32 322.37,-119.65 319.19,-125.88" style=""/>
<text text-anchor="middle" x="304.22" y="-119" font-family="Times,serif" font-size="14.00" style="">b</text>
</g>
<!-- q1_p1&#45;&gt;q2_p1 -->
<g id="node5" class="node">
<title style="">q2_p2</title>
<ellipse fill="none" stroke="black" cx="728.18" cy="-100.8" rx="35.34" ry="35.34" style=""/>
<ellipse fill="none" stroke="black" cx="728.18" cy="-100.8" rx="39.36" ry="39.36" style=""/>
<text text-anchor="middle" x="728.18" y="-96.6" font-family="Times,serif" font-size="14.00" style="">q2_p2</text>
</g>
<!-- q1_p2 -->
<g id="edge4" class="edge">
<title style="">q1_p2-&gt;q2_p2</title>
<path fill="none" stroke="black" d="M282.68,-80.91C306.1,-79.37 336.71,-77.8 363.89,-77.8 363.89,-77.8 363.89,-77.8 607.82,-77.8 632.16,-77.8 658.8,-82.47 680.72,-87.6" style=""/>
<polygon fill="black" stroke="black" points="679.89,-91 690.44,-89.97 681.55,-84.2 679.89,-91" style=""/>
<text text-anchor="middle" x="485.47" y="-82" font-family="Times,serif" font-size="14.00" style="">a</text>
</g>
<!-- p2&#45;&gt;p3 -->
<g id="node6" class="node">
<title style="">q2_p3</title>
<ellipse fill="none" stroke="black" cx="485.47" cy="-152.8" rx="35.34" ry="35.34" style=""/>
<ellipse fill="none" stroke="black" cx="485.47" cy="-152.8" rx="39.36" ry="39.36" style=""/>
<text text-anchor="middle" x="485.47" y="-148.6" font-family="Times,serif" font-size="14.00" style="">q2_p3</text>
</g>
<!-- p3&#45;&gt;p1 -->
<g id="edge6" class="edge">
<title style="">q1_p3-&gt;q2_p3</title>
<path fill="none" stroke="black" d="M404.06,-147.38C414.32,-148.07 425.56,-148.83 436.28,-149.55" style=""/>
<polygon fill="black" stroke="black" points="436.16,-153.05 446.37,-150.23 436.63,-146.06 436.16,-153.05" style=""/>
<text text-anchor="middle" x="425.18" y="-153" font-family="Times,serif" font-size="14.00" style="">a</text>
</g>
<!-- p3&#45;&gt;p3 -->
<g id="edge7" class="edge">
<title style="">q1_p3-&gt;q1_p1</title>
<path fill="none" stroke="black" d="M326.04,-152.32C283.73,-160.72 215.31,-174.3 170.79,-183.14" style=""/>
<polygon fill="black" stroke="black" points="169.97,-179.74 160.84,-185.12 171.33,-186.6 169.97,-179.74" style=""/>
<text text-anchor="middle" x="243.54" y="-180" font-family="Times,serif" font-size="14.00" style="">b</text>
</g>
<!-- q2_p1 -->
<g id="node4" class="node">
<title style="">q2_p1</title>
<ellipse fill="none" stroke="black" cx="606.82" cy="-212.8" rx="35.34" ry="35.34" style=""/>
<ellipse fill="none" stroke="black" cx="606.82" cy="-212.8" rx="39.36" ry="39.36" style=""/>
<text text-anchor="middle" x="606.82" y="-208.6" font-family="Times,serif" font-size="14.00" style="">q2_p1</text>
</g>
<!-- q2_p1&#45;&gt;q2_p2 -->
<g id="edge9" class="edge">
<title style="">q2_p1-&gt;q2_p2</title>
<path fill="none" stroke="black" d="M636.11,-186.26C652.76,-170.64 673.96,-150.74 691.72,-134.07" style=""/>
<polygon fill="black" stroke="black" points="694.2,-136.55 699.1,-127.15 689.41,-131.44 694.2,-136.55" style=""/>
<text text-anchor="middle" x="667.5" y="-161" font-family="Times,serif" font-size="14.00" style="">b</text>
</g>
<!-- q2_p1&#45;&gt;q1_p1 -->
<g id="edge8" class="edge">
<title style="">q2_p1-&gt;q1_p1</title>
<path fill="none" stroke="black" d="M567.69,-216.18C544.28,-217.97 513.66,-219.8 486.47,-219.8 242.54,-219.8 242.54,-219.8 242.54,-219.8 217.69,-219.8 190.67,-213.59 169.03,-207.02" style=""/>
<polygon fill="black" stroke="black" points="170.08,-203.68 159.49,-204 167.97,-210.36 170.08,-203.68" style=""/>
<text text-anchor="middle" x="364.89" y="-224" font-family="Times,serif" font-size="14.00" style="">a</text>
</g>
<!-- q2_p2&#45;&gt;q1_p2 -->
<g id="edge10" class="edge">
<title style="">q2_p2-&gt;q1_p2</title>
<path fill="none" stroke="black" d="M701.24,-72.07C678.86,-50.55 644.43,-24.8 607.82,-24.8 363.89,-24.8 363.89,-24.8 363.89,-24.8 334.71,-24.8 305.29,-39.15 282.95,-53.69" style=""/>
<polygon fill="black" stroke="black" points="280.76,-50.95 274.45,-59.46 284.69,-56.74 280.76,-50.95" style=""/>
<text text-anchor="middle" x="485.47" y="-29" font-family="Times,serif" font-size="14.00" style="">a</text>
</g>
<!-- q2_p2&#45;&gt;q2_p3 -->
<g id="edge11" class="edge">
<title style="">q2_p2-&gt;q2_p3</title>
<path fill="none" stroke="black" d="M689.75,-108.89C647.72,-117.97 579.45,-132.71 533.77,-142.58" style=""/>
<polygon fill="black" stroke="black" points="532.85,-139.2 523.81,-144.73 534.33,-146.04 532.85,-139.2" style=""/>
<text text-anchor="middle" x="606.82" y="-139" font-family="Times,serif" font-size="14.00" style="">b</text>
</g>
<!-- q2_p3&#45;&gt;q1_p3 -->
<g id="edge12" class="edge">
<title style="">q2_p3-&gt;q1_p3</title>
<path fill="none" stroke="black" d="M450.46,-135.11C443.31,-132.17 435.69,-129.56 428.29,-128 422.73,-126.83 416.93,-126.78 411.2,-127.45" style=""/>
<polygon fill="black" stroke="black" points="410.22,-124.07 401.04,-129.35 411.51,-130.95 410.22,-124.07" style=""/>
<text text-anchor="middle" x="425.18" y="-133" font-family="Times,serif" font-size="14.00" style="">a</text>
</g>
<!-- q2_p3&#45;&gt;q2_p1 -->
<g id="edge13" class="edge">
<title style="">q2_p3-&gt;q2_p1</title>
<path fill="none" stroke="black" d="M520.99,-170.15C533.86,-176.62 548.63,-184.05 562.21,-190.87" style=""/>
<polygon fill="black" stroke="black" points="560.87,-194.12 571.38,-195.48 564.02,-187.87 560.87,-194.12" style=""/>
<text text-anchor="middle" x="546.14" y="-187" font-family="Times,serif" font-size="14.00" style="">b</text>
</g>
<!-- q1_p1&#45;&gt;q1_p2 -->
<g id="edge3" class="edge">
<title style="">q1_p1-&gt;q1_p2</title>
<path fill="none" stroke="black" d="M151.23,-166.71C159.95,-157.82 169.97,-147.83 179.36,-139 187.64,-131.21 196.75,-123.03 205.41,-115.43" style=""/>
<polygon fill="black" stroke="black" points="207.96,-117.85 213.2,-108.64 203.37,-112.58 207.96,-117.85" style=""/>
<text text-anchor="middle" x="182.86" y="-144" font-family="Times,serif" font-size="14.00" style="">b</text>
</g>
<!-- q1_p1&#45;&gt;q2_p1 -->
<g id="edge2" class="edge">
<title style="">q1_p1-&gt;q2_p1</title>
<path fill="none" stroke="black" d="M148.76,-219.22C169.88,-242.72 204.36,-272.8 242.54,-272.8 242.54,-272.8 242.54,-272.8 486.47,-272.8 515.74,-272.8 545.17,-258.21 567.48,-243.42" style=""/>
<polygon fill="black" stroke="black" points="569.74,-246.11 575.97,-237.55 565.76,-240.36 569.74,-246.11" style=""/>
<text text-anchor="middle" x="364.89" y="-277" font-family="Times,serif" font-size="14.00" style="">a</text>
</g>
</g>
</svg>