<svg width="726" height="789" viewBox="0 0 544.5 591.75" xmlns="http://www.w3.org/2000/svg" xmlns:xlink="http://www.w3.org/1999/xlink">
<g id="graph0" class="graph" transform="translate(2.865186377796679,364.8149677001277) scale(0.7162965944491697)">
<polygon fill="white" stroke="transparent" points="-4,4 -4,-196.49 756.16,-196.49 756.16,4 -4,4"/>
<text text-anchor="middle" x="376.08" y="-8.2" font-family="Times,serif" font-size="14.00">Figure 1.1: Deterministic finite machine to the task 3.1</text>
<g id="node1" class="node">
<title/>
</g>
<!-- f1_g1 -->
<g id="node3" class="node">
<title>q1</title>
<ellipse fill="none" stroke="black" cx="111.69" cy="-105.8" rx="20.89" ry="20.89"/>
<text text-anchor="middle" x="111.69" y="-101.6" font-family="Times,serif" font-size="14.00">q1</text>
</g>
<!-- &#45;&gt;f1_g1 -->
<g id="edge1" class="edge">
<title>-&gt;q1</title>
<path fill="none" stroke="black" d="M54.16,-105.8C62.64,-105.8 72.11,-105.8 80.83,-105.8"/>
<polygon fill="black" stroke="black" points="80.99,-109.3 90.99,-105.8 80.99,-102.3 80.99,-109.3"/>
</g>
<!-- f8_g2 -->
<g id="node2" class="node">
<title style="">q10</title>
<ellipse fill="none" stroke="black" cx="722.64" cy="-100.8" rx="25.54" ry="25.54" style=""/>
<ellipse fill="none" stroke="black" cx="722.64" cy="-100.8" rx="29.54" ry="29.54" style=""/>
<text text-anchor="middle" x="722.64" y="-96.6" font-family="Times,serif" font-size="14.00" style="">q10</text>
</g>
<!-- f8_g5 -->
<g id="node4" class="node">
<title style="">q2</title>
<ellipse fill="none" stroke="black" cx="217.07" cy="-171.8" rx="20.89" ry="20.89" style=""/>
<text text-anchor="middle" x="217.07" y="-167.6" font-family="Times,serif" font-size="14.00" style="">q2</text>
</g>
<!-- f8_g2&#45;&gt;f8_g5 -->
<g id="edge2" class="edge">
<title style="">q1-&gt;q2</title>
<path fill="none" stroke="black" d="M127.57,-119.19C134.29,-124.94 142.5,-131.53 150.39,-136.8 162.51,-144.9 176.71,-152.66 188.8,-158.8"/>
<polygon fill="black" stroke="black" points="187.45,-162.04 197.96,-163.36 190.56,-155.77 187.45,-162.04"/>
<text text-anchor="middle" x="164.38" y="-156" font-family="Times,serif" font-size="14.00" style="">lamb</text>
</g>
<!-- f7_g3 -->
<g id="node8" class="node">
<title style="">q9</title>
<ellipse fill="none" stroke="black" cx="630.21" cy="-100.8" rx="20.89" ry="20.89" style=""/>
<text text-anchor="middle" x="630.21" y="-96.6" font-family="Times,serif" font-size="14.00" style="">q9</text>
</g>
<!-- f8_g2&#45;&gt;f7_g3 -->
<g id="edge12" class="edge">
<title style="">q1-&gt;q9</title>
<path fill="none" stroke="black" d="M131.97,-110.9C152.62,-115.91 186.43,-122.8 216.07,-122.8 216.07,-122.8 216.07,-122.8 525.83,-122.8 551.57,-122.8 580.15,-116.19 600.72,-110.22"/>
<polygon fill="black" stroke="black" points="601.86,-113.53 610.41,-107.28 599.82,-106.83 601.86,-113.53"/>
<text text-anchor="middle" x="353.36" y="-127" font-family="Times,serif" font-size="14.00" style="">lamb</text>
</g>
<!-- f8_g3 -->
<g id="node9" class="node">
<title style="">q6</title>
<ellipse fill="none" stroke="black" cx="217.07" cy="-73.8" rx="20.89" ry="20.89" style=""/>
<text text-anchor="middle" x="217.07" y="-69.6" font-family="Times,serif" font-size="14.00" style="">q6</text>
</g>
<!-- f8_g6 -->
<g id="edge7" class="edge">
<title style="">q1-&gt;q6</title>
<path fill="none" stroke="black" d="M131.38,-98.62C137.41,-96.39 144.15,-94 150.39,-92 162.21,-88.21 175.37,-84.47 186.79,-81.37"/>
<polygon fill="black" stroke="black" points="187.93,-84.69 196.69,-78.73 186.13,-77.92 187.93,-84.69"/>
<text text-anchor="middle" x="164.38" y="-96" font-family="Times,serif" font-size="14.00" style="">lamb</text>
</g>
<!-- f8_g3&#45;&gt;f8_g6 -->
<g id="node5" class="node">
<title style="">q3</title>
<ellipse fill="none" stroke="black" cx="300.67" cy="-171.8" rx="20.89" ry="20.89" style=""/>
<text text-anchor="middle" x="300.67" y="-167.6" font-family="Times,serif" font-size="14.00" style="">q3</text>
</g>
<!-- q2&#45;&gt;q3 -->
<g id="edge3" class="edge">
<title style="">q2-&gt;q3</title>
<path fill="none" stroke="black" d="M237.83,-171.8C247.38,-171.8 259.05,-171.8 269.67,-171.8" style=""/>
<polygon fill="black" stroke="black" points="269.82,-175.3 279.82,-171.8 269.82,-168.3 269.82,-175.3" style=""/>
<text text-anchor="middle" x="258.87" y="-176" font-family="Times,serif" font-size="14.00" style="">a</text>
</g>
<!-- q4 -->
<g id="node6" class="node">
<title style="">q4</title>
<ellipse fill="none" stroke="black" cx="406.05" cy="-171.8" rx="20.89" ry="20.89" style=""/>
<text text-anchor="middle" x="406.05" y="-167.6" font-family="Times,serif" font-size="14.00" style="">q4</text>
</g>
<!-- q3&#45;&gt;q4 -->
<g id="edge4" class="edge">
<title style="">q3-&gt;q4</title>
<path fill="none" stroke="black" d="M321.61,-171.8C336.77,-171.8 357.88,-171.8 375.07,-171.8" style=""/>
<polygon fill="black" stroke="black" points="375.18,-175.3 385.18,-171.8 375.18,-168.3 375.18,-175.3" style=""/>
<text text-anchor="middle" x="353.36" y="-176" font-family="Times,serif" font-size="14.00" style="">b</text>
</g>
<!-- q5 -->
<g id="node7" class="node">
<title style="">q5</title>
<ellipse fill="none" stroke="black" cx="524.83" cy="-171.8" rx="20.89" ry="20.89" style=""/>
<text text-anchor="middle" x="524.83" y="-167.6" font-family="Times,serif" font-size="14.00" style="">q5</text>
</g>
<!-- q4&#45;&gt;q5 -->
<g id="edge5" class="edge">
<title style="">q4-&gt;q5</title>
<path fill="none" stroke="black" d="M426.86,-171.8C445.23,-171.8 472.82,-171.8 493.88,-171.8" style=""/>
<polygon fill="black" stroke="black" points="493.92,-175.3 503.92,-171.8 493.92,-168.3 493.92,-175.3" style=""/>
<text text-anchor="middle" x="465.44" y="-176" font-family="Times,serif" font-size="14.00" style="">a</text>
</g>
<!-- q5&#45;&gt;q9 -->
<g id="edge6" class="edge">
<title style="">q5-&gt;q9</title>
<path fill="none" stroke="black" d="M544.17,-163.69C557.8,-157.28 576.54,-147.63 591.51,-136.8 597.23,-132.67 602.96,-127.71 608.16,-122.82" style=""/>
<polygon fill="black" stroke="black" points="610.64,-125.3 615.35,-115.81 605.75,-120.29 610.64,-125.3" style=""/>
<text text-anchor="middle" x="577.52" y="-158" font-family="Times,serif" font-size="14.00" style="">lamb</text>
</g>
<!-- q9&#45;&gt;q10 -->
<g id="edge11" class="edge">
<title style="">q9-&gt;q10</title>
<path fill="none" stroke="black" d="M651.28,-100.8C660.58,-100.8 671.97,-100.8 682.86,-100.8" style=""/>
<polygon fill="black" stroke="black" points="683.05,-104.3 693.05,-100.8 683.05,-97.3 683.05,-104.3" style=""/>
<text text-anchor="middle" x="672.01" y="-105" font-family="Times,serif" font-size="14.00" style="">a</text>
</g>
<!-- q9&#45;&gt;q1 -->
<g id="edge13" class="edge">
<title style="">q9-&gt;q1</title>
<path fill="none" stroke="black" d="M617.6,-84.31C600.36,-61.96 565.7,-24.8 525.83,-24.8 216.07,-24.8 216.07,-24.8 216.07,-24.8 179.52,-24.8 148.21,-56.56 129.91,-80.31" style=""/>
<polygon fill="black" stroke="black" points="126.89,-78.5 123.77,-88.62 132.52,-82.66 126.89,-78.5" style=""/>
<text text-anchor="middle" x="353.36" y="-29" font-family="Times,serif" font-size="14.00" style="">lamb</text>
</g>
<!-- q7 -->
<g id="node10" class="node">
<title style="">q7</title>
<ellipse fill="none" stroke="black" cx="300.67" cy="-73.8" rx="20.89" ry="20.89" style=""/>
<text text-anchor="middle" x="300.67" y="-69.6" font-family="Times,serif" font-size="14.00" style="">q7</text>
</g>
<!-- q6&#45;&gt;q7 -->
<g id="edge8" class="edge">
<title style="">q6-&gt;q7</title>
<path fill="none" stroke="black" d="M237.83,-73.8C247.38,-73.8 259.05,-73.8 269.67,-73.8" style=""/>
<polygon fill="black" stroke="black" points="269.82,-77.3 279.82,-73.8 269.82,-70.3 269.82,-77.3" style=""/>
<text text-anchor="middle" x="258.87" y="-78" font-family="Times,serif" font-size="14.00" style="">a</text>
</g>
<!-- q8 -->
<g id="node11" class="node">
<title style="">q8</title>
<ellipse fill="none" stroke="black" cx="465.44" cy="-74.8" rx="20.89" ry="20.89" style=""/>
<text text-anchor="middle" x="465.44" y="-70.6" font-family="Times,serif" font-size="14.00" style="">q8</text>
</g>
<!-- q7&#45;&gt;q8 -->
<g id="edge9" class="edge">
<title style="">q7-&gt;q8</title>
<path fill="none" stroke="black" d="M321.63,-73.92C349.78,-74.1 401.35,-74.41 434.21,-74.61" style=""/>
<polygon fill="black" stroke="black" points="434.55,-78.12 444.57,-74.68 434.6,-71.12 434.55,-78.12" style=""/>
<text text-anchor="middle" x="353.36" y="-78" font-family="Times,serif" font-size="14.00" style="">b</text>
</g>
<!-- q8&#45;&gt;q9 -->
<g id="edge10" class="edge">
<title style="">q8-&gt;q9</title>
<path fill="none" stroke="black" d="M486.07,-77.94C514.3,-82.45 566.58,-90.8 599.54,-96.06" style=""/>
<polygon fill="black" stroke="black" points="599.08,-99.53 609.51,-97.65 600.18,-92.62 599.08,-99.53" style=""/>
<text text-anchor="middle" x="524.83" y="-91" font-family="Times,serif" font-size="14.00" style="">lamb</text>
</g>
</g>
</svg>