<svg width="726" height="789" viewBox="0 0 544.5 591.75" xmlns="http://www.w3.org/2000/svg" xmlns:xlink="http://www.w3.org/1999/xlink">
<g id="graph0" class="graph" transform="translate(3.465118196322975,378.50507663963947) scale(0.8662795490807438)">
<polygon fill="white" stroke="transparent" points="-4,4 -4,-194.77 624.55,-194.77 624.55,4 -4,4"/>
<text text-anchor="middle" x="310.28" y="-8.2" font-family="Times,serif" font-size="14.00">Figure 1: Minimal deterministic finite machine to the task 3.1</text>
<g id="node1" class="node">
<title/>
</g>
<!-- f1_g1 -->
<g id="node4" class="node">
<title style="">q1</title>
<ellipse fill="none" stroke="black" cx="111.69" cy="-87.73" rx="20.89" ry="20.89" style=""/>
<text text-anchor="middle" x="111.69" y="-83.53" font-family="Times,serif" font-size="14.00" style="">q1</text>
</g>
<!-- &#45;&gt;f1_g1 -->
<g id="edge1" class="edge">
<title style="">-&gt;q1</title>
<path fill="none" stroke="black" d="M54.16,-87.73C62.64,-87.73 72.11,-87.73 80.83,-87.73"/>
<polygon fill="black" stroke="black" points="80.99,-91.23 90.99,-87.73 80.99,-84.23 80.99,-91.23"/>
</g>
<!-- f8_g2 -->
<g id="node2" class="node">
<title style="">{q3,q7,q10}</title>
<ellipse fill="none" stroke="black" cx="237.54" cy="-87.73" rx="58.87" ry="58.87" style=""/>
<ellipse fill="none" stroke="black" cx="237.54" cy="-87.73" rx="62.87" ry="62.87" style=""/>
<text text-anchor="middle" x="237.54" y="-83.53" font-family="Times,serif" font-size="14.00" style="">{q3,q7,q10}</text>
</g>
<!-- f8_g5 -->
<g id="node5" class="node">
<title style="">{q8,q4}</title>
<ellipse fill="none" stroke="black" cx="385.5" cy="-148.73" rx="42.07" ry="42.07" style=""/>
<text text-anchor="middle" x="385.5" y="-144.53" font-family="Times,serif" font-size="14.00" style="">{q8,q4}</text>
</g>
<!-- f8_g2&#45;&gt;f8_g5 -->
<g id="edge3" class="edge">
<title style="">{q3,q7,q10}-&gt;{q8,q4}</title>
<path fill="none" stroke="black" d="M295.81,-111.67C309.43,-117.36 323.83,-123.38 336.96,-128.87" style=""/>
<polygon fill="black" stroke="black" points="335.7,-132.13 346.28,-132.76 338.4,-125.67 335.7,-132.13" style=""/>
<text text-anchor="middle" x="321.97" y="-127.93" font-family="Times,serif" font-size="14.00" style="">b</text>
</g>
<!-- f7_g3 -->
<g id="node3" class="node">
<title style="">{q5,q7,q3,q10}</title>
<ellipse fill="none" stroke="black" cx="545.55" cy="-108.73" rx="71.01" ry="71.01" style=""/>
<ellipse fill="none" stroke="black" cx="545.55" cy="-108.73" rx="75.01" ry="75.01" style=""/>
<text text-anchor="middle" x="545.55" y="-104.53" font-family="Times,serif" font-size="14.00" style="">{q5,q7,q3,q10}</text>
</g>
<!-- f8_g2&#45;&gt;f7_g3 -->
<g id="edge5" class="edge">
<title style="">{q5,q7,q3,q10}-&gt;{q3,q7,q10}</title>
<path fill="none" stroke="black" d="M472.93,-88.94C458.04,-85.61 442.37,-82.67 427.54,-80.93 390.43,-76.59 380.81,-79.73 343.47,-80.93 332.78,-81.28 321.49,-81.82 310.44,-82.46" style=""/>
<polygon fill="black" stroke="black" points="310.14,-78.97 300.37,-83.06 310.56,-85.96 310.14,-78.97" style=""/>
<text text-anchor="middle" x="385.5" y="-85.93" font-family="Times,serif" font-size="14.00" style="">a</text>
</g>
<!-- f8_g3 -->
<g id="edge6" class="edge">
<title style="">{q5,q7,q3,q10}-&gt;{q8,q4}</title>
<path fill="none" stroke="black" d="M470.32,-106.89C461.86,-107.92 453.44,-109.54 445.54,-111.93 439.84,-113.67 434.14,-116.1 428.66,-118.89" style=""/>
<polygon fill="black" stroke="black" points="426.72,-115.97 419.68,-123.88 430.12,-122.09 426.72,-115.97" style=""/>
<text text-anchor="middle" x="449.04" y="-116.93" font-family="Times,serif" font-size="14.00" style="">b</text>
</g>
<!-- f8_g6 -->
<g id="edge2" class="edge">
<title style="">q1-&gt;{q3,q7,q10}</title>
<path fill="none" stroke="black" d="M132.59,-87.73C141.48,-87.73 152.54,-87.73 164.12,-87.73" style=""/>
<polygon fill="black" stroke="black" points="164.38,-91.23 174.38,-87.73 164.38,-84.23 164.38,-91.23" style=""/>
<text text-anchor="middle" x="153.49" y="-91.93" font-family="Times,serif" font-size="14.00" style="">a</text>
</g>
<!-- f8_g3&#45;&gt;f8_g6 -->
<g id="edge4" class="edge">
<title style="">{q8,q4}-&gt;{q5,q7,q3,q10}</title>
<path fill="none" stroke="black" d="M426.39,-138.64C437.61,-135.8 450.24,-132.6 462.96,-129.38" style=""/>
<polygon fill="black" stroke="black" points="463.84,-132.77 472.68,-126.92 462.13,-125.98 463.84,-132.77" style=""/>
<text text-anchor="middle" x="449.04" y="-137.93" font-family="Times,serif" font-size="14.00" style="">a</text>
</g>
</g>
</svg>