<svg width="726" height="789" viewBox="0 0 544.5 591.75" xmlns="http://www.w3.org/2000/svg" xmlns:xlink="http://www.w3.org/1999/xlink">
<g id="graph0" class="graph" transform="translate(3.208367206789832,391.5645543902966) scale(0.802091801697458)">
<polygon fill="white" stroke="transparent" points="-4,4 -4,-242.6 674.85,-242.6 674.85,4 -4,4"/>
<text text-anchor="middle" x="335.42" y="-8.2" font-family="Times,serif" font-size="14.00">Figure 4: Minimal deterministic finite machine to the task 3.4</text>
<g id="node1" class="node">
<title/>
</g>
<!-- f1_g1 -->
<g id="node5" class="node">
<title>q1</title>
<ellipse fill="none" stroke="black" cx="111.69" cy="-127.80000000000001" rx="20.89" ry="20.89"/>
<text text-anchor="middle" x="111.69" y="-123.6" font-family="Times,serif" font-size="14.00">q1</text>
</g>
<!-- &#45;&gt;f1_g1 -->
<g id="edge1" class="edge">
<title>-&gt;q1</title>
<path fill="none" stroke="black" d="M54.16,-127.8C62.64,-127.8 72.11,-127.8 80.83,-127.8"/>
<polygon fill="black" stroke="black" points="80.99,-131.3 90.99,-127.8 80.99,-124.3 80.99,-131.3"/>
</g>
<!-- f8_g2 -->

<!-- f8_g5 -->
<g id="node2" class="node">
<title>q2</title>
<ellipse fill="none" stroke="black" cx="209.79" cy="-127.8" rx="20.86" ry="20.86"/>
<text text-anchor="middle" x="209.79" y="-123.6" font-family="Times,serif" font-size="14.00">q2</text><ellipse fill="none" stroke="black" cx="209.79" cy="-127.8" rx="24.89" ry="24.89" style=""/>

</g><g id="node3" class="node">
<title style="">q5</title>
<ellipse fill="none" stroke="black" cx="301.39" cy="-127.8" rx="20.86" ry="20.86" style=""/>
<ellipse fill="none" stroke="black" cx="301.39" cy="-127.8" rx="24.89" ry="24.89" style=""/>
<text text-anchor="middle" x="301.39" y="-123.6" font-family="Times,serif" font-size="14.00" style="">q5</text>
</g>
<!-- f8_g2&#45;&gt;f8_g5 -->
<!-- q2&#45;&gt;q6 -->
<g id="edge5" class="edge">
<title style="">q2-&gt;q6</title>
<path fill="none" stroke="black" d="M227.39,-110.15C239.73,-98.35 257.65,-83.79 276.7,-77 303.29,-67.52 335.73,-67.75 358.85,-69.74"/>
<polygon fill="black" stroke="black" points="358.77,-73.25 369.07,-70.78 359.48,-66.28 358.77,-73.25"/>
<text text-anchor="middle" x="301.39" y="-81" font-family="Times,serif" font-size="14.00" style="">b</text>
</g>
<!-- q5&#45;&gt;q5 -->
<g id="edge9" class="edge">
<title style="">q5-&gt;q5</title>
<path fill="none" stroke="black" d="M293.24,-151.51C292.58,-161.74 295.29,-170.49 301.39,-170.49 305.3,-170.49 307.82,-166.9 308.95,-161.63" style=""/>
<polygon fill="black" stroke="black" points="312.46,-161.7 309.55,-151.51 305.47,-161.29 312.46,-161.7" style=""/>
<text text-anchor="middle" x="301.39" y="-174.69" font-family="Times,serif" font-size="14.00" style="">c</text>
</g>
<!-- q5&#45;&gt;q3 -->
<g id="edge11" class="edge">
<title style="">q5-&gt;q3</title>
<path fill="none" stroke="black" d="M325.73,-133.44C338.47,-136.33 354.57,-139.68 369.09,-141.8 427.54,-150.32 496.48,-155.09 534.95,-157.29" style=""/>
<polygon fill="black" stroke="black" points="534.78,-160.78 544.96,-157.84 535.17,-153.79 534.78,-160.78" style=""/>
<text text-anchor="middle" x="431.98" y="-153" font-family="Times,serif" font-size="14.00" style="">a</text>
</g>
<!-- q5&#45;&gt;q6 -->
<g id="edge10" class="edge">
<title style="">q5-&gt;q6</title>
<path fill="none" stroke="black" d="M322.18,-114.27C329.06,-109.66 336.86,-104.52 344.09,-100 349.89,-96.37 356.2,-92.58 362.19,-89.05" style=""/>
<polygon fill="black" stroke="black" points="364.36,-91.83 371.24,-83.77 360.84,-85.79 364.36,-91.83" style=""/>
<text text-anchor="middle" x="347.59" y="-104" font-family="Times,serif" font-size="14.00" style="">b</text>
</g>
<!-- q7 -->
<g id="node4" class="node">
<title style="">q7</title>
<ellipse fill="none" stroke="black" cx="478.17" cy="-109.8" rx="20.86" ry="20.86" style=""/>
<ellipse fill="none" stroke="black" cx="478.17" cy="-109.8" rx="24.89" ry="24.89" style=""/>
<text text-anchor="middle" x="478.17" y="-105.6" font-family="Times,serif" font-size="14.00" style="">q7</text>
</g>
<!-- q7&#45;&gt;q5 -->
<g id="edge15" class="edge">
<title style="">q7-&gt;q5</title>
<path fill="none" stroke="black" d="M453.52,-112.24C423.33,-115.34 370.89,-120.75 336.41,-124.3" style=""/>
<polygon fill="black" stroke="black" points="335.92,-120.83 326.33,-125.33 336.64,-127.79 335.92,-120.83" style=""/>
<text text-anchor="middle" x="389.78" y="-125" font-family="Times,serif" font-size="14.00" style="">c</text>
</g>
<!-- q7&#45;&gt;q3 -->
<g id="edge14" class="edge">
<title style="">q7-&gt;q3</title>
<path fill="none" stroke="black" d="M499.89,-121.66C511.48,-128.3 526.05,-136.64 538.44,-143.73" style=""/>
<polygon fill="black" stroke="black" points="536.99,-146.93 547.41,-148.86 540.47,-140.86 536.99,-146.93" style=""/>
<text text-anchor="middle" x="523.97" y="-139" font-family="Times,serif" font-size="14.00" style="">a</text>
</g>
<!-- q7&#45;&gt;q6 -->
<g id="edge13" class="edge">
<title style="">q7-&gt;q6</title>
<path fill="none" stroke="black" d="M463.25,-90.06C456.05,-81.57 446.46,-72.56 435.48,-68 430.54,-65.95 425.06,-65.41 419.68,-65.71" style=""/>
<polygon fill="black" stroke="black" points="419.01,-62.27 409.61,-67.17 420.01,-69.2 419.01,-62.27" style=""/>
<text text-anchor="middle" x="431.98" y="-72" font-family="Times,serif" font-size="14.00" style="">b</text>
</g>
<!-- q1&#45;&gt;q2 -->
<g id="edge2" class="edge">
<title>q1-&gt;q2</title>
<path fill="none" stroke="black" d="M132.61,-127.8C144.7,-127.8 160.46,-127.8 174.51,-127.8"/>
<polygon fill="black" stroke="black" points="174.83,-131.3 184.83,-127.8 174.83,-124.3 174.83,-131.3"/>
<text text-anchor="middle" x="158.74" y="-132" font-family="Times,serif" font-size="14.00">b,c</text>
</g><g id="edge3" class="edge">
<title style="">q2-&gt;q5</title>
<path fill="none" stroke="black" d="M234.81,-127.8C244.53,-127.8 255.92,-127.8 266.46,-127.8"/>
<polygon fill="black" stroke="black" points="266.63,-131.3 276.63,-127.8 266.63,-124.3 266.63,-131.3"/>
<text text-anchor="middle" x="255.59" y="-132" font-family="Times,serif" font-size="14.00" style="">c</text>
</g>
<!-- f7_g3 -->

<!-- f8_g2&#45;&gt;f7_g3 -->

<!-- f8_g3 -->
<g id="node7" class="node">
<title style="">q6</title>
<ellipse fill="none" stroke="black" cx="389.78" cy="-73.8" rx="20.89" ry="20.89" style=""/>
<text text-anchor="middle" x="389.78" y="-69.6" font-family="Times,serif" font-size="14.00" style="">q6</text>
</g>
<g id="node6" class="node">
<title>q3</title>
<ellipse fill="none" stroke="black" cx="565.77" cy="-158.8" rx="20.89" ry="20.89"/>
<text text-anchor="middle" x="565.77" y="-154.6" font-family="Times,serif" font-size="14.00">q3</text>
</g><g id="edge4" class="edge">
<title>q2-&gt;q3</title>
<path fill="none" stroke="black" d="M220.41,-150.55C233.87,-178.37 261.17,-221.8 300.39,-221.8 300.39,-221.8 300.39,-221.8 479.17,-221.8 506.37,-221.8 530.63,-200.91 546.32,-183.19"/>
<polygon fill="black" stroke="black" points="549.14,-185.26 552.9,-175.35 543.79,-180.76 549.14,-185.26"/>
<text text-anchor="middle" x="389.78" y="-226" font-family="Times,serif" font-size="14.00">a</text>
</g>
<!-- q4 -->
<g id="node8" class="node">
<title style="">q4</title>
<ellipse fill="none" stroke="black" cx="650.16" cy="-118.8" rx="20.89" ry="20.89" style=""/>
<text text-anchor="middle" x="650.16" y="-114.6" font-family="Times,serif" font-size="14.00" style="">q4</text>
</g>
<!-- q3&#45;&gt;q4 -->
<g id="edge6" class="edge">
<title style="">q3-&gt;q4</title>
<path fill="none" stroke="black" d="M584.65,-150.12C595.55,-144.83 609.7,-137.95 621.98,-132"/>
<polygon fill="black" stroke="black" points="623.85,-134.98 631.31,-127.46 620.79,-128.68 623.85,-134.98"/>
<text text-anchor="middle" x="607.96" y="-144" font-family="Times,serif" font-size="14.00" style="">b</text>
</g>
<!-- q6&#45;&gt;q7 -->
<g id="edge12" class="edge">
<title style="">q6-&gt;q7</title>
<path fill="none" stroke="black" d="M409.1,-81.43C419.73,-85.86 433.41,-91.56 445.71,-96.69" style=""/>
<polygon fill="black" stroke="black" points="444.63,-100.03 455.2,-100.65 447.32,-93.57 444.63,-100.03" style=""/>
<text text-anchor="middle" x="431.98" y="-96" font-family="Times,serif" font-size="14.00" style="">a</text>
</g>
<!-- q4&#45;&gt;q5 -->
<g id="edge8" class="edge">
<title style="">q4-&gt;q5</title>
<path fill="none" stroke="black" d="M642.2,-99.32C630.97,-71.79 606.05,-24.8 566.77,-24.8 388.78,-24.8 388.78,-24.8 388.78,-24.8 376.62,-24.8 377.26,-34.8 369.09,-43.8 367.86,-45.16 342.92,-76.61 323.89,-100.64" style=""/>
<polygon fill="black" stroke="black" points="320.92,-98.75 317.46,-108.76 326.41,-103.09 320.92,-98.75" style=""/>
<text text-anchor="middle" x="478.17" y="-29" font-family="Times,serif" font-size="14.00" style="">c</text>
</g>
<!-- q4&#45;&gt;q3 -->
<g id="edge7" class="edge">
<title style="">q4-&gt;q3</title>
<path fill="none" stroke="black" d="M629.73,-113.67C621.6,-112.5 612.26,-112.48 604.46,-116 596.16,-119.75 588.96,-126.33 583.14,-133.23" style=""/>
<polygon fill="black" stroke="black" points="580.25,-131.24 576.95,-141.31 585.81,-135.5 580.25,-131.24" style=""/>
<text text-anchor="middle" x="607.96" y="-120" font-family="Times,serif" font-size="14.00" style="">a</text>
</g>
</g>
</svg>