<svg width="726" height="789" viewBox="0 0 544.5 591.75" xmlns="http://www.w3.org/2000/svg" xmlns:xlink="http://www.w3.org/1999/xlink">
<g id="graph0" class="graph" transform="translate(2.8964691331108594,345.7377165684696) scale(0.7241172832777149)">
<polygon fill="white" stroke="transparent" points="-4,4 -4,-141.72 747.95,-141.72 747.95,4 -4,4"/>
<text text-anchor="middle" x="371.98" y="-8.2" font-family="Times,serif" font-size="14.00">Figure 2.1: Deterministic finite machine to the task 3.2</text>
<g id="node1" class="node">
<title/>
</g>
<!-- f1_g1 -->
<g id="node5" class="node">
<title>q1</title>
<ellipse fill="none" stroke="black" cx="111.69" cy="-95.92" rx="20.89" ry="20.89"/>
<text text-anchor="middle" x="111.69" y="-91.72" font-family="Times,serif" font-size="14.00">q1</text>
</g>
<!-- &#45;&gt;f1_g1 -->
<g id="edge1" class="edge">
<title>-&gt;q1</title>
<path fill="none" stroke="black" d="M54.16,-95.92C62.64,-95.92 72.11,-95.92 80.83,-95.92"/>
<polygon fill="black" stroke="black" points="80.99,-99.42 90.99,-95.92 80.99,-92.42 80.99,-99.42"/>
</g>
<!-- f8_g2 -->

<!-- f8_g5 -->
<g id="node2" class="node">
<title>q2</title>
<ellipse fill="none" stroke="black" cx="199.29" cy="-95.92" rx="20.86" ry="20.86"/>
<text text-anchor="middle" x="199.29" y="-91.72" font-family="Times,serif" font-size="14.00">q2</text><ellipse fill="none" stroke="black" cx="199.29" cy="-95.92" rx="24.89" ry="24.89"/>

</g>
<!-- f8_g2&#45;&gt;f8_g5 -->
<g id="edge2" class="edge">
<title>q1-&gt;q2</title>
<path fill="none" stroke="black" d="M132.55,-95.92C142.05,-95.92 153.7,-95.92 164.54,-95.92"/>
<polygon fill="black" stroke="black" points="164.59,-99.42 174.59,-95.92 164.59,-92.42 164.59,-99.42"/>
<text text-anchor="middle" x="153.49" y="-100.12" font-family="Times,serif" font-size="14.00">a</text>
</g>
<!-- f7_g3 -->

<!-- f8_g2&#45;&gt;f7_g3 -->
<g id="edge9" class="edge">
<title style="">q6-&gt;q3</title>
<path fill="none" stroke="black" d="M518.39,-95.92C471.83,-95.92 369.03,-95.92 317.93,-95.92"/>
<polygon fill="black" stroke="black" points="317.86,-92.42 307.86,-95.92 317.86,-99.42 317.86,-92.42"/>
<text text-anchor="middle" x="412.69" y="-100.12" font-family="Times,serif" font-size="14.00" style="">a</text>
</g>
<!-- f8_g3 -->
<g id="node3" class="node">
<title>q6</title>
<ellipse fill="none" stroke="black" cx="543.27" cy="-95.92" rx="20.86" ry="20.86"/>
<text text-anchor="middle" x="543.27" y="-91.72" font-family="Times,serif" font-size="14.00">q6</text><ellipse fill="none" stroke="black" cx="543.27" cy="-95.92" rx="24.89" ry="24.89"/>

</g><g id="node9" class="node">
<title style="">q7</title>
<ellipse fill="none" stroke="black" cx="630.87" cy="-95.92" rx="20.89" ry="20.89" style=""/>
<text text-anchor="middle" x="630.87" y="-91.72" font-family="Times,serif" font-size="14.00" style="">q7</text>
</g>
<!-- f8_g6 -->
<g id="edge10" class="edge">
<title style="">q6-&gt;q7</title>
<path fill="none" stroke="black" d="M568.11,-95.92C577.88,-95.92 589.3,-95.92 599.64,-95.92"/>
<polygon fill="black" stroke="black" points="599.91,-99.42 609.91,-95.92 599.91,-92.42 599.91,-99.42"/>
<text text-anchor="middle" x="589.07" y="-100.12" font-family="Times,serif" font-size="14.00" style="">a</text>
</g>
<!-- f8_g3&#45;&gt;f8_g6 -->
<g id="node6" class="node">
<title>q3</title>
<ellipse fill="none" stroke="black" cx="286.89" cy="-95.92" rx="20.89" ry="20.89"/>
<text text-anchor="middle" x="286.89" y="-91.72" font-family="Times,serif" font-size="14.00">q3</text>
</g><g id="node4" class="node">
<title style="">q8</title>
<ellipse fill="none" stroke="black" cx="719.26" cy="-95.92" rx="20.86" ry="20.86" style=""/>
<ellipse fill="none" stroke="black" cx="719.26" cy="-95.92" rx="24.89" ry="24.89" style=""/>
<text text-anchor="middle" x="719.26" y="-91.72" font-family="Times,serif" font-size="14.00" style="">q8</text>
</g>
<!-- q2&#45;&gt;q3 -->
<g id="edge3" class="edge">
<title>q2-&gt;q3</title>
<path fill="none" stroke="black" d="M224.14,-95.92C233.91,-95.92 245.32,-95.92 255.66,-95.92"/>
<polygon fill="black" stroke="black" points="255.94,-99.42 265.94,-95.92 255.94,-92.42 255.94,-99.42"/>
<text text-anchor="middle" x="245.09" y="-100.12" font-family="Times,serif" font-size="14.00">a</text>
</g><g id="edge12" class="edge">
<title style="">q8-&gt;q7</title>
<path fill="none" stroke="black" d="M698.83,-81.15C690.1,-76.22 679.53,-72.56 669.56,-75.12 665.41,-76.19 661.23,-77.83 657.23,-79.72" style=""/>
<polygon fill="black" stroke="black" points="655.53,-76.66 648.37,-84.46 658.83,-82.83 655.53,-76.66" style=""/>
<text text-anchor="middle" x="673.06" y="-80.12" font-family="Times,serif" font-size="14.00" style="">a</text>
</g>
<!-- q4 -->
<g id="node7" class="node">
<title>q4</title>
<ellipse fill="none" stroke="black" cx="370.5" cy="-46.92" rx="20.89" ry="20.89"/>
<text text-anchor="middle" x="370.5" y="-42.72" font-family="Times,serif" font-size="14.00">q4</text>
</g><g id="edge8" class="edge">
<title>q3-&gt;q6</title>
<path fill="none" stroke="black" d="M306.35,-104.07C312.37,-106.37 319.16,-108.61 325.59,-109.92 401.78,-125.51 424.14,-124.28 500.58,-109.92 503.8,-109.32 507.12,-108.52 510.41,-107.61"/>
<polygon fill="black" stroke="black" points="511.54,-110.93 520.07,-104.64 509.48,-104.24 511.54,-110.93"/>
<text text-anchor="middle" x="412.69" y="-125.12" font-family="Times,serif" font-size="14.00">b</text>
</g>
<!-- q3&#45;&gt;q4 -->
<g id="edge4" class="edge">
<title>q3-&gt;q4</title>
<path fill="none" stroke="black" d="M302.55,-82.26C309.24,-76.48 317.47,-69.98 325.59,-65.12 330.46,-62.21 335.88,-59.55 341.2,-57.22"/>
<polygon fill="black" stroke="black" points="342.62,-60.42 350.54,-53.38 339.96,-53.94 342.62,-60.42"/>
<text text-anchor="middle" x="328.7" y="-70.12" font-family="Times,serif" font-size="14.00">a</text>
</g>
<!-- q5 -->
<g id="node8" class="node">
<title>q5</title>
<ellipse fill="none" stroke="black" cx="454.88" cy="-46.92" rx="20.89" ry="20.89"/>
<text text-anchor="middle" x="454.88" y="-42.72" font-family="Times,serif" font-size="14.00">q5</text>
</g>
<!-- q4&#45;&gt;q5 -->
<g id="edge5" class="edge">
<title>q4-&gt;q5</title>
<path fill="none" stroke="black" d="M391.44,-46.92C401.15,-46.92 413.04,-46.92 423.83,-46.92"/>
<polygon fill="black" stroke="black" points="424.12,-50.42 434.12,-46.92 424.12,-43.42 424.12,-50.42"/>
<text text-anchor="middle" x="412.69" y="-51.12" font-family="Times,serif" font-size="14.00">b</text>
</g>
<!-- q5&#45;&gt;q9 -->

<!-- q9&#45;&gt;q10 -->
<g id="edge7" class="edge">
<title>q5-&gt;q6</title>
<path fill="none" stroke="black" d="M474.63,-53.36C482.82,-56.47 492.39,-60.53 500.58,-65.12 505.48,-67.88 510.48,-71.12 515.22,-74.45"/>
<polygon fill="black" stroke="black" points="513.3,-77.38 523.43,-80.46 517.43,-71.73 513.3,-77.38"/>
<text text-anchor="middle" x="497.08" y="-70.12" font-family="Times,serif" font-size="14.00">b</text>
</g>
<!-- q9&#45;&gt;q1 -->
<g id="edge6" class="edge">
<title>q5-&gt;q4</title>
<path fill="none" stroke="black" d="M438.69,-33.92C430.27,-28.27 419.47,-23.48 409.19,-26.12 405.04,-27.19 400.85,-28.83 396.86,-30.72"/>
<polygon fill="black" stroke="black" points="395.16,-27.66 387.99,-35.46 398.46,-33.83 395.16,-27.66"/>
<text text-anchor="middle" x="412.69" y="-31.12" font-family="Times,serif" font-size="14.00">a</text>
</g>
<!-- q7 -->

<!-- q6&#45;&gt;q7 -->
<g id="edge11" class="edge">
<title style="">q7-&gt;q8</title>
<path fill="none" stroke="black" d="M651.91,-95.92C661.5,-95.92 673.26,-95.92 684.2,-95.92" style=""/>
<polygon fill="black" stroke="black" points="684.34,-99.42 694.34,-95.92 684.34,-92.42 684.34,-99.42" style=""/>
<text text-anchor="middle" x="673.06" y="-100.12" font-family="Times,serif" font-size="14.00" style="">b</text>
</g>
</g>
</svg>